<svg
    version="1.0"
    xmlns="http://www.w3.org/2000/svg"
    width="100"
    height="100"
    viewBox="0 0 100 100"
    preserveAspectRatio="xMidYMid meet"
    className="select-none w-full h-full inline-block shrink-0 fill-[#193625] text-[#193625]"
>
    <g
        transform="translate(0,100) scale(0.1,-0.1)"
        fill="#193625"
        stroke="none"
    >
        <path d="M626 894 l-49 -75 121 -122 121 -121 75 50 75 50 -147 147 -147 146 -49 -75z" />
        <path d="M509 743 c-50 -26 -135 -43 -215 -43 l-50 0 -23 -97 c-13 -54 -52 -186 -87 -294 -35 -108 -64 -201 -64 -205 0 -5 81 72 180 171 113 112 178 185 175 194 -9 24 23 61 53 61 35 0 52 -16 52 -50 0 -33 -17 -50 -50 -50 -19 0 -66 -40 -205 -180 -99 -99 -176 -180 -171 -180 4 0 96 29 204 63 109 35 241 75 295 87 l97 24 0 50 c0 80 18 166 45 221 l25 50 -103 103 c-56 56 -104 101 -107 101 -3 -1 -26 -13 -51 -26z" />
    </g>
</svg>